<svg width="1024" height="1024" viewBox="0 0 1024 1024" xmlns="http://www.w3.org/2000/svg">
  <defs>
    <linearGradient id="premiumGrad" x1="0" y1="0" x2="0" y2="1">
      <stop offset="0%" stop-color="#9252CC"/>
      <stop offset="50%" stop-color="#592B8A"/>
      <stop offset="100%" stop-color="#1D0B2B"/>
    </linearGradient>
  </defs>
  
  <rect width="1024" height="1024" rx="240" fill="url(#premiumGrad)"/>

  <g transform="translate(512, 512) scale(4.5) translate(-200, -200)">
    <path id="path1" d="M170.400 151.997 C 140.136 157.204,122.186 186.741,131.808 215.504 C 142.493 247.447,184.213 259.200,209.800 237.476 C 214.839 233.197,217.790 229.616,226.800 216.843 C 230.430 211.698,234.601 205.848,236.069 203.844 C 239.151 199.636,239.280 200.645,234.895 194.634 L 232.390 191.200 212.487 191.200 L 192.585 191.200 187.392 197.856 C 184.537 201.517,181.525 205.338,180.700 206.349 C 179.875 207.359,179.200 208.322,179.200 208.488 C 179.200 208.655,186.244 208.838,194.853 208.895 L 210.507 209.000 207.391 213.200 C 205.678 215.510,204.167 217.490,204.035 217.600 C 203.903 217.710,202.838 218.920,201.668 220.288 C 181.095 244.357,141.938 223.085,149.964 192.200 C 155.709 170.093,184.357 161.681,199.781 177.571 C 201.897 179.751,201.469 180.019,207.800 172.565 C 214.502 164.674,214.263 165.430,210.918 162.709 C 199.415 153.349,184.878 149.507,170.400 151.997 M216.400 154.047 C 216.400 154.445,226.173 168.419,237.976 184.898 C 246.497 196.795,248.400 199.556,248.400 200.022 C 248.400 200.284,246.715 202.862,244.655 205.749 C 242.595 208.637,237.974 215.140,234.385 220.200 C 230.797 225.260,225.258 233.051,222.076 237.513 C 218.895 241.974,216.371 245.704,216.467 245.801 C 216.665 245.998,237.617 246.120,237.801 245.925 C 237.999 245.715,244.402 236.801,246.799 233.400 C 248.039 231.640,253.856 223.508,259.727 215.330 C 265.597 207.151,270.400 200.252,270.400 199.999 C 270.400 199.627,244.995 163.642,239.126 155.700 L 237.574 153.600 226.987 153.600 C 219.459 153.600,216.400 153.729,216.400 154.047 " stroke="none" fill="#faf9fa" fill-rule="evenodd"></path>
  </g>
</svg>
